<svg width="346" height="88" viewBox="0 0 346 88" fill="none" xmlns="http://www.w3.org/2000/svg">
<path d="M0.413818 75.2134C0.413818 74.6611 0.861534 74.2134 1.41382 74.2134H6.29213C6.84441 74.2134 7.29213 74.6611 7.29213 75.2134V86.8842C7.29213 87.4365 6.84441 87.8842 6.29213 87.8842H1.41382C0.861534 87.8842 0.413818 87.4365 0.413818 86.8842V75.2134Z" fill="#292C2D"/>
<path d="M8.66754 71.3071C8.66754 70.7548 9.11526 70.3071 9.66754 70.3071H14.5459C15.0981 70.3071 15.5459 70.7548 15.5459 71.3071V86.8839C15.5459 87.4362 15.0981 87.8839 14.5459 87.8839H9.66754C9.11526 87.8839 8.66754 87.4362 8.66754 86.8839V71.3071Z" fill="#292C2D"/>
<path d="M33.4294 71.3071C33.4294 70.7548 33.8772 70.3071 34.4294 70.3071H39.3078C39.86 70.3071 40.3078 70.7548 40.3078 71.3071V86.8839C40.3078 87.4362 39.86 87.8839 39.3078 87.8839H34.4294C33.8772 87.8839 33.4294 87.4362 33.4294 86.8839V71.3071Z" fill="#292C2D"/>
<path d="M248.033 71.3071C248.033 70.7548 248.48 70.3071 249.033 70.3071H253.911C254.463 70.3071 254.911 70.7548 254.911 71.3071V86.8839C254.911 87.4362 254.463 87.8839 253.911 87.8839H249.033C248.48 87.8839 248.033 87.4362 248.033 86.8839V71.3071Z" fill="#292C2D"/>
<path d="M58.1916 42.0129C58.1916 41.4607 58.6393 41.0129 59.1916 41.0129H64.0699C64.6222 41.0129 65.0699 41.4607 65.0699 42.0129V86.8844C65.0699 87.4367 64.6222 87.8844 64.0699 87.8844H59.1916C58.6393 87.8844 58.1916 87.4367 58.1916 86.8844V42.0129Z" fill="#292C2D"/>
<path d="M272.795 42.0129C272.795 41.4607 273.242 41.0129 273.795 41.0129H278.673C279.225 41.0129 279.673 41.4607 279.673 42.0129V86.8844C279.673 87.4367 279.225 87.8844 278.673 87.8844H273.795C273.242 87.8844 272.795 87.4367 272.795 86.8844V42.0129Z" fill="#292C2D"/>
<path d="M99.4612 42.0129C99.4612 41.4607 99.9089 41.0129 100.461 41.0129H105.339C105.892 41.0129 106.339 41.4607 106.339 42.0129V86.8844C106.339 87.4367 105.892 87.8844 105.339 87.8844H100.461C99.9089 87.8844 99.4612 87.4367 99.4612 86.8844V42.0129Z" fill="#292C2D"/>
<path d="M140.731 26.3887C140.731 25.8364 141.179 25.3887 141.731 25.3887H146.61C147.162 25.3887 147.61 25.8364 147.61 26.3887V86.884C147.61 87.4363 147.162 87.884 146.61 87.884H141.731C141.179 87.884 140.731 87.4363 140.731 86.884V26.3887Z" fill="#292C2D"/>
<path d="M198.509 42.0129C198.509 41.4607 198.957 41.0129 199.509 41.0129H204.387C204.94 41.0129 205.387 41.4607 205.387 42.0129V86.8844C205.387 87.4367 204.94 87.8844 204.387 87.8844H199.509C198.957 87.8844 198.509 87.4367 198.509 86.8844V42.0129Z" fill="#292C2D"/>
<path d="M165.493 24.436C165.493 23.8838 165.941 23.436 166.493 23.436H171.371C171.924 23.436 172.371 23.8838 172.371 24.436V86.8843C172.371 87.4366 171.924 87.8843 171.371 87.8843H166.493C165.941 87.8843 165.493 87.4366 165.493 86.8843V24.436Z" fill="#292C2D"/>
<path d="M223.271 42.0129C223.271 41.4607 223.719 41.0129 224.271 41.0129H229.149C229.702 41.0129 230.149 41.4607 230.149 42.0129V86.8844C230.149 87.4367 229.702 87.8844 229.149 87.8844H224.271C223.719 87.8844 223.271 87.4367 223.271 86.8844V42.0129Z" fill="#292C2D"/>
<path d="M16.9216 69.3542C16.9216 68.802 17.3693 68.3542 17.9216 68.3542H22.7999C23.3522 68.3542 23.7999 68.802 23.7999 69.3542V86.884C23.7999 87.4363 23.3522 87.884 22.7999 87.884H17.9216C17.3693 87.884 16.9216 87.4363 16.9216 86.884V69.3542Z" fill="#292C2D"/>
<path d="M281.049 69.3542C281.049 68.802 281.496 68.3542 282.049 68.3542H286.927C287.479 68.3542 287.927 68.802 287.927 69.3542V86.884C287.927 87.4363 287.479 87.884 286.927 87.884H282.049C281.496 87.884 281.049 87.4363 281.049 86.884V69.3542Z" fill="#292C2D"/>
<path d="M297.557 69.3542C297.557 68.802 298.005 68.3542 298.557 68.3542H303.435C303.987 68.3542 304.435 68.802 304.435 69.3542V86.884C304.435 87.4363 303.987 87.884 303.435 87.884H298.557C298.005 87.884 297.557 87.4363 297.557 86.884V69.3542Z" fill="#292C2D"/>
<path d="M322.319 59.5891C322.319 59.0368 322.766 58.5891 323.319 58.5891H328.197C328.749 58.5891 329.197 59.0368 329.197 59.5891V86.8838C329.197 87.4361 328.749 87.8838 328.197 87.8838H323.319C322.766 87.8838 322.319 87.4361 322.319 86.8838V59.5891Z" fill="#292C2D"/>
<path d="M41.6835 51.7773C41.6835 51.2251 42.1312 50.7773 42.6835 50.7773H47.5618C48.1141 50.7773 48.5618 51.2251 48.5618 51.7773V86.8839C48.5618 87.4362 48.1141 87.8839 47.5618 87.8839H42.6835C42.1312 87.8839 41.6835 87.4362 41.6835 86.8839V51.7773Z" fill="#292C2D"/>
<path d="M256.287 51.7773C256.287 51.2251 256.734 50.7773 257.287 50.7773H262.165C262.717 50.7773 263.165 51.2251 263.165 51.7773V86.8839C263.165 87.4362 262.717 87.8839 262.165 87.8839H257.287C256.734 87.8839 256.287 87.4362 256.287 86.8839V51.7773Z" fill="#292C2D"/>
<path d="M82.9535 51.7773C82.9535 51.2251 83.4012 50.7773 83.9535 50.7773H88.8318C89.3841 50.7773 89.8318 51.2251 89.8318 51.7773V86.8839C89.8318 87.4362 89.3841 87.8839 88.8318 87.8839H83.9535C83.4012 87.8839 82.9535 87.4362 82.9535 86.8839V51.7773Z" fill="#292C2D"/>
<path d="M124.223 24.436C124.223 23.8838 124.671 23.436 125.223 23.436H130.101C130.654 23.436 131.101 23.8838 131.101 24.436V86.8843C131.101 87.4366 130.654 87.8843 130.101 87.8843H125.223C124.671 87.8843 124.223 87.4366 124.223 86.8843V24.436Z" fill="#292C2D"/>
<path d="M66.4453 18.5769C66.4453 18.0246 66.893 17.5769 67.4453 17.5769H72.3236C72.8759 17.5769 73.3236 18.0246 73.3236 18.5769V86.8841C73.3236 87.4364 72.8759 87.8841 72.3236 87.8841H67.4453C66.893 87.8841 66.4453 87.4364 66.4453 86.8841V18.5769Z" fill="#292C2D"/>
<path d="M107.715 18.5769C107.715 18.0246 108.163 17.5769 108.715 17.5769H113.594C114.146 17.5769 114.594 18.0246 114.594 18.5769V86.8841C114.594 87.4364 114.146 87.8841 113.594 87.8841H108.715C108.163 87.8841 107.715 87.4364 107.715 86.8841V18.5769Z" fill="#292C2D"/>
<path d="M148.985 18.5769C148.985 18.0246 149.433 17.5769 149.985 17.5769H154.864C155.416 17.5769 155.864 18.0246 155.864 18.5769V86.8841C155.864 87.4364 155.416 87.8841 154.864 87.8841H149.985C149.433 87.8841 148.985 87.4364 148.985 86.8841V18.5769Z" fill="#292C2D"/>
<path d="M206.763 18.5769C206.763 18.0246 207.211 17.5769 207.763 17.5769H212.641C213.194 17.5769 213.641 18.0246 213.641 18.5769V86.8841C213.641 87.4364 213.194 87.8841 212.641 87.8841H207.763C207.211 87.8841 206.763 87.4364 206.763 86.8841V18.5769Z" fill="#292C2D"/>
<path d="M173.747 18.5769C173.747 18.0246 174.195 17.5769 174.747 17.5769H179.626C180.178 17.5769 180.626 18.0246 180.626 18.5769V86.8841C180.626 87.4364 180.178 87.8841 179.626 87.8841H174.747C174.195 87.8841 173.747 87.4364 173.747 86.8841V18.5769Z" fill="#292C2D"/>
<path d="M231.525 18.5769C231.525 18.0246 231.973 17.5769 232.525 17.5769H237.403C237.955 17.5769 238.403 18.0246 238.403 18.5769V86.8841C238.403 87.4364 237.955 87.8841 237.403 87.8841H232.525C231.973 87.8841 231.525 87.4364 231.525 86.8841V18.5769Z" fill="#292C2D"/>
<path d="M25.1757 65.448C25.1757 64.8957 25.6234 64.448 26.1757 64.448H31.054C31.6063 64.448 32.054 64.8957 32.054 65.448V86.8837C32.054 87.436 31.6063 87.8837 31.054 87.8837H26.1757C25.6234 87.8837 25.1757 87.436 25.1757 86.8837V65.448Z" fill="#292C2D"/>
<path d="M289.303 65.448C289.303 64.8957 289.75 64.448 290.303 64.448H295.181C295.733 64.448 296.181 64.8957 296.181 65.448V86.8837C296.181 87.436 295.733 87.8837 295.181 87.8837H290.303C289.75 87.8837 289.303 87.436 289.303 86.8837V65.448Z" fill="#292C2D"/>
<path d="M314.065 65.448C314.065 64.8957 314.512 64.448 315.065 64.448H319.943C320.495 64.448 320.943 64.8957 320.943 65.448V86.8837C320.943 87.436 320.495 87.8837 319.943 87.8837H315.065C314.512 87.8837 314.065 87.436 314.065 86.8837V65.448Z" fill="#292C2D"/>
<path d="M305.811 75.2134C305.811 74.6611 306.258 74.2134 306.811 74.2134H311.689C312.241 74.2134 312.689 74.6611 312.689 75.2134V86.8842C312.689 87.4365 312.241 87.8842 311.689 87.8842H306.811C306.258 87.8842 305.811 87.4365 305.811 86.8842V75.2134Z" fill="#292C2D"/>
<path d="M330.573 75.2134C330.573 74.6611 331.02 74.2134 331.573 74.2134H336.451C337.003 74.2134 337.451 74.6611 337.451 75.2134V86.8842C337.451 87.4365 337.003 87.8842 336.451 87.8842H331.573C331.02 87.8842 330.573 87.4365 330.573 86.8842V75.2134Z" fill="#292C2D"/>
<path d="M338.826 79.1187C338.826 78.5664 339.274 78.1187 339.826 78.1187H344.705C345.257 78.1187 345.705 78.5664 345.705 79.1187V86.8835C345.705 87.4358 345.257 87.8835 344.705 87.8835H339.826C339.274 87.8835 338.826 87.4358 338.826 86.8835V79.1187Z" fill="#292C2D"/>
<path d="M49.9375 65.448C49.9375 64.8957 50.3852 64.448 50.9375 64.448H55.8158C56.3681 64.448 56.8158 64.8957 56.8158 65.448V86.8837C56.8158 87.436 56.3681 87.8837 55.8158 87.8837H50.9375C50.3852 87.8837 49.9375 87.436 49.9375 86.8837V65.448Z" fill="#292C2D"/>
<path d="M264.541 65.448C264.541 64.8957 264.989 64.448 265.541 64.448H270.419C270.971 64.448 271.419 64.8957 271.419 65.448V86.8837C271.419 87.436 270.971 87.8837 270.419 87.8837H265.541C264.989 87.8837 264.541 87.436 264.541 86.8837V65.448Z" fill="#292C2D"/>
<path d="M91.2076 65.448C91.2076 64.8957 91.6553 64.448 92.2075 64.448H97.0859C97.6381 64.448 98.0859 64.8957 98.0859 65.448V86.8837C98.0859 87.436 97.6381 87.8837 97.0859 87.8837H92.2075C91.6553 87.8837 91.2076 87.436 91.2076 86.8837V65.448Z" fill="#292C2D"/>
<path d="M132.477 1C132.477 0.447716 132.925 0 133.477 0H138.355C138.908 0 139.355 0.447715 139.355 1V86.884C139.355 87.4363 138.908 87.884 138.355 87.884H133.477C132.925 87.884 132.477 87.4363 132.477 86.884V1Z" fill="#292C2D"/>
<path d="M190.255 1C190.255 0.447716 190.703 0 191.255 0H196.133C196.686 0 197.133 0.447715 197.133 1V86.884C197.133 87.4363 196.686 87.884 196.133 87.884H191.255C190.703 87.884 190.255 87.4363 190.255 86.884V1Z" fill="#292C2D"/>
<path d="M74.6994 51.7773C74.6994 51.2251 75.1471 50.7773 75.6994 50.7773H80.5777C81.13 50.7773 81.5777 51.2251 81.5777 51.7773V86.8839C81.5777 87.4362 81.13 87.8839 80.5777 87.8839H75.6994C75.1471 87.8839 74.6994 87.4362 74.6994 86.8839V51.7773Z" fill="#292C2D"/>
<path d="M115.969 32.2476C115.969 31.6953 116.417 31.2476 116.969 31.2476H121.848C122.4 31.2476 122.848 31.6953 122.848 32.2476V86.8839C122.848 87.4362 122.4 87.8839 121.848 87.8839H116.969C116.417 87.8839 115.969 87.4362 115.969 86.8839V32.2476Z" fill="#292C2D"/>
<path d="M157.239 32.2476C157.239 31.6953 157.687 31.2476 158.239 31.2476H163.117C163.67 31.2476 164.117 31.6953 164.117 32.2476V86.8839C164.117 87.4362 163.67 87.8839 163.117 87.8839H158.239C157.687 87.8839 157.239 87.4362 157.239 86.8839V32.2476Z" fill="#292C2D"/>
<path d="M215.017 51.7773C215.017 51.2251 215.465 50.7773 216.017 50.7773H220.895C221.447 50.7773 221.895 51.2251 221.895 51.7773V86.8839C221.895 87.4362 221.447 87.8839 220.895 87.8839H216.017C215.465 87.8839 215.017 87.4362 215.017 86.8839V51.7773Z" fill="#292C2D"/>
<path d="M182.001 12.718C182.001 12.1657 182.449 11.718 183.001 11.718H187.88C188.432 11.718 188.88 12.1657 188.88 12.718V86.8842C188.88 87.4364 188.432 87.8842 187.88 87.8842H183.001C182.449 87.8842 182.001 87.4364 182.001 86.8842V12.718Z" fill="#292C2D"/>
<path d="M239.779 51.7773C239.779 51.2251 240.227 50.7773 240.779 50.7773H245.657C246.21 50.7773 246.657 51.2251 246.657 51.7773V86.8839C246.657 87.4362 246.21 87.8839 245.657 87.8839H240.779C240.227 87.8839 239.779 87.4362 239.779 86.8839V51.7773Z" fill="#292C2D"/>
</svg>
