<svg width="51" height="67" viewBox="0 0 51 67" fill="none" xmlns="http://www.w3.org/2000/svg">
<path d="M33.5925 65.7362C44.5928 61.1014 48.9764 50.0822 50.5269 39.8184C50.7885 38.1144 51.3372 36.3422 50.7119 34.7064C50.0866 33.0706 48.1596 31.7358 46.3092 32.1958C44.7715 32.5764 43.8718 33.951 42.8445 35.0358C41.4782 36.4995 39.6724 37.5869 37.6379 38.1712C36.3107 38.5518 34.7347 38.671 33.6436 37.8986C32.1505 36.8364 32.3675 34.7802 32.6737 33.0876C33.299 29.9484 33.9116 26.8093 34.5114 23.6702C34.9437 21.9951 35.0708 20.2691 34.8878 18.5582C34.6071 16.8542 33.5798 15.1502 31.857 14.4458C30.1342 13.7415 27.716 14.3152 27.0205 15.917C26.8153 16.6058 26.6618 17.306 26.561 18.0129C26.376 18.7115 25.8592 19.4329 25.0743 19.5181C24.2895 19.6033 23.6068 19.0069 23.1282 18.4218C21.4948 16.4168 20.576 14.0142 19.7465 11.6342C18.917 9.25432 18.1386 6.82896 16.7093 4.69328C15.28 2.5576 13.0978 0.717281 10.3988 0.149281C7.69976 -0.418719 4.50943 0.660483 3.38005 2.93816C2.25067 5.21584 3.34176 7.87976 4.65618 10.0722C6.65233 13.3187 9.16458 16.2916 12.1152 18.899C12.7036 19.3163 13.1281 19.889 13.3275 20.5348C13.5253 21.7276 12.1088 22.6705 10.7752 22.8522C9.28217 23.0567 7.76357 22.6932 6.25135 22.625C4.73913 22.5569 3.02274 22.8977 2.21878 24.0621C1.11492 25.6752 2.39743 27.737 3.76928 29.1741C6.52465 32.0371 9.81162 34.4578 13.487 36.3309C14.8014 36.9954 16.1988 37.6202 17.1623 38.6654C18.1258 39.7105 18.515 41.335 17.609 42.4255C16.7029 43.5161 14.8716 43.6354 13.4551 43.1696C12.0386 42.7038 10.8582 41.8007 9.55017 41.1248C7.09999 39.8525 3.69271 39.5003 1.63175 41.2611C0.988964 41.8768 0.515514 42.6169 0.248672 43.4232C-0.0181694 44.2294 -0.0711174 45.0798 0.0940018 45.9074C0.433418 47.5559 1.14307 49.1265 2.18048 50.5252C5.48496 55.5817 10.2362 59.768 15.95 62.6577C21.6607 65.4409 27.1863 66.7984 33.5862 65.7419" fill="#F3704A"/>
<path d="M31.8508 58.8862C31.0046 53.0406 29.7818 47.2432 28.1883 41.5225L26.9633 37.0182C26.5613 35.5358 26.1593 34.0703 25.6871 32.6617C24.7331 29.9582 23.6126 27.3035 22.3309 24.7097C21.1249 22.2218 19.8807 19.893 18.7003 17.729C17.5198 15.5649 16.3649 13.5655 15.2292 11.7877C13.4563 8.96782 11.4336 6.27835 9.18029 3.7448C8.38271 2.84737 7.73827 2.17144 7.29801 1.71704C7.08744 1.5012 6.91516 1.3308 6.79393 1.20016C6.67269 1.06952 6.61526 1.02975 6.60888 1.03543C6.65509 1.10094 6.70627 1.16357 6.76203 1.22288L7.24695 1.75681C7.66807 2.22256 8.29339 2.89279 9.07183 3.81863C11.2759 6.37706 13.2615 9.07883 15.0122 11.9013C16.1289 13.6848 17.2646 15.6842 18.4387 17.8482C19.6127 20.0123 20.8378 22.3411 22.031 24.829C23.3016 27.4229 24.4093 30.0776 25.3489 32.781C25.8403 34.1839 26.2359 35.621 26.6251 37.1205L27.8502 41.6304C29.4401 47.3393 30.6692 53.123 31.5318 58.9544" fill="#263238"/>
<path d="M25.5786 32.6389C25.7169 32.418 25.8261 32.1835 25.904 31.9403C26.0954 31.4916 26.3443 30.8043 26.6378 30.0034C27.2248 28.3562 27.9522 26.0558 28.7434 23.5225C29.5346 20.9892 30.2939 18.7002 30.9128 17.07C31.2191 16.2521 31.4743 15.5876 31.653 15.1389C31.7602 14.9056 31.8435 14.6641 31.9019 14.4175C31.7479 14.6293 31.6216 14.8561 31.5254 15.0934C31.3021 15.5308 31.0149 16.184 30.6768 16.9905C29.994 18.615 29.1965 20.8927 28.3989 23.4373C27.6013 25.982 26.9313 28.2085 26.3953 29.9352C26.1465 30.7191 25.9423 31.378 25.7573 31.9062C25.6737 32.1453 25.6139 32.3905 25.5786 32.6389Z" fill="#263238"/>
<path d="M1.87447 24.8799C2.18269 24.9944 2.50345 25.08 2.83157 25.1355C3.46964 25.2775 4.34379 25.482 5.44127 25.766C7.6426 26.334 10.6479 27.1746 13.9212 28.2538C17.1945 29.333 20.1104 30.4292 22.2161 31.2699C23.2625 31.6845 24.0984 32.0424 24.679 32.2866C24.9707 32.428 25.2761 32.5459 25.5914 32.6388C25.3275 32.4577 25.0431 32.3016 24.7428 32.173C24.1813 31.8947 23.3582 31.5084 22.3245 31.037C20.2636 30.1396 17.354 29.0092 14.0743 27.9244C11.2752 26.9921 8.42339 26.1901 5.53058 25.5217C4.42035 25.2604 3.51429 25.09 2.88261 24.9821C2.55086 24.9202 2.21336 24.886 1.87447 24.8799Z" fill="#263238"/>
<path d="M31.6275 58.4486C31.7092 58.3742 31.7819 58.2924 31.8444 58.2044L32.4123 57.483C32.9036 56.8469 33.5863 55.921 34.4094 54.7623C36.0684 52.4449 38.2378 49.1789 40.5796 45.5437C42.9213 41.9085 45.046 38.6311 46.6603 36.291L48.5745 33.5134L49.085 32.758C49.1524 32.6743 49.2061 32.5825 49.2445 32.4854C49.2445 32.4854 49.1616 32.5592 49.0276 32.7239C48.8936 32.8886 48.683 33.1556 48.4597 33.451C47.9684 34.0814 47.2856 35.0073 46.4562 36.1717C44.8036 38.4891 42.6277 41.7494 40.286 45.3846C37.9443 49.0198 35.8196 52.2972 34.2116 54.643L32.2974 57.4149C32.0933 57.7159 31.921 57.9829 31.787 58.1703C31.7185 58.2555 31.6648 58.3493 31.6275 58.4486Z" fill="#263238"/>
<path d="M0.885456 44.2207C0.975233 44.2906 1.07633 44.3481 1.18535 44.3911L2.07227 44.8114L5.3647 46.3393C8.14668 47.6344 11.9623 49.4577 16.1736 51.4513C20.3848 53.445 24.2196 55.2683 27.0207 56.5065C28.4245 57.1257 29.573 57.6425 30.3642 57.9436L31.3213 58.3185C31.4264 58.3681 31.5378 58.4062 31.6531 58.4321C31.5618 58.3639 31.461 58.3066 31.3532 58.2617L30.4599 57.8413L27.1675 56.3077C24.3919 55.0184 20.5762 53.1951 16.365 51.1957C12.1537 49.1964 8.31257 47.3845 5.51783 46.1462C4.11408 45.5271 2.96557 45.0102 2.17436 44.7092L1.25555 44.3343C1.13948 44.2797 1.01464 44.2414 0.885456 44.2207Z" fill="#263238"/>
</svg>
