<svg width="43" height="131" viewBox="0 0 43 131" fill="none" xmlns="http://www.w3.org/2000/svg">
<path d="M2.99881 91.3282C2.99881 91.3282 8.36434 88.9699 11.8467 81.4811C15.0491 74.5941 12.3824 69.0742 16.25 62.5374C20.2122 55.8407 26.667 55.6864 31.1913 49.3558C35.4303 43.4244 35.24 37.7861 35.24 37.7861" stroke="#FFD433"/>
<path d="M23.9782 55.518C23.9782 55.518 30.0304 52.9897 33.5127 45.5008C36.7152 38.6138 34.0485 33.0939 37.916 26.5572C41.8783 19.8604 48.3331 19.7061 52.8574 13.3755C57.0963 7.44417 56.906 1.80579 56.906 1.80579" stroke="#FFD433"/>
<path d="M7.99881 129.328C7.99881 129.328 13.3643 126.97 16.8467 119.481C20.0491 112.594 17.3824 107.074 21.25 100.537C25.2122 93.8407 31.667 93.6864 36.1913 87.3558C40.4303 81.4244 40.24 75.7861 40.24 75.7861" stroke="#F3704A"/>
<path d="M28.9782 93.518C28.9782 93.518 35.0304 90.9897 38.5127 83.5008C41.7152 76.6138 39.0485 71.0939 42.916 64.5572C46.8783 57.8604 53.3331 57.7061 57.8574 51.3755C62.0963 45.4442 61.906 39.8058 61.906 39.8058" stroke="#F3704A"/>
</svg>
