<svg width="38" height="68" viewBox="0 0 38 68" fill="none" xmlns="http://www.w3.org/2000/svg">
<path d="M5.41432 0.0794565C5.41432 0.0794565 1.36076 0.642444 3.63663 9.52069C5.91249 18.3989 7.84373 22.9779 7.84373 22.9779C7.84373 22.9779 8.1474 24.9877 6.52666 24.9263C4.90592 24.8648 1.59961 23.5614 0.477032 25.2982C-0.683077 27.1134 0.333724 29.2971 2.86549 31.5866C5.39726 33.8761 10.7952 39.0932 11.2797 39.5675C11.7642 40.0418 12.1191 41.0176 11.0067 41.1507C9.89439 41.2838 2.00565 40.3591 1.7941 44.1295C1.58255 47.8998 9.71355 53.1135 10.5905 53.7004C11.4674 54.2872 11.6141 54.7445 11.4094 55.2563C11.2046 55.7681 8.59097 55.2051 6.33559 55.0311C4.0802 54.8571 1.43242 55.0584 1.49042 57.2421C1.54843 59.4258 5.82036 64.9534 18.2745 69.0616L24.174 70.5868L28.5312 66.2944C37.3002 56.5392 38.259 49.6229 37.2252 47.6985C36.1913 45.7741 33.8131 46.9171 31.9228 48.1864C30.0325 49.4557 28.0535 51.2573 27.6304 50.9161C27.2073 50.5749 27.0981 50.104 27.569 49.1589C28.0399 48.2137 32.5063 39.6494 30.4454 36.483C28.3845 33.3166 21.9971 38.0321 20.9734 38.4654C19.9498 38.8987 19.7655 37.8683 19.9498 37.2268C20.1341 36.5853 22.2154 29.379 23.2868 26.1205C24.3582 22.8619 24.1535 20.4667 22.2427 19.4703C20.4002 18.5115 18.1858 21.2958 16.8073 22.1556C15.4288 23.0155 14.6986 21.132 14.6986 21.132C14.6986 21.132 14.0981 16.2016 11.6619 7.36426C9.22562 -1.47304 5.33925 0.110164 5.33925 0.110164" fill="#FFD433"/>
<path d="M24.1705 72.0539C22.4065 65.5709 19.4618 53.9699 16.8857 44.01C14.3096 34.0501 11.9689 25.0695 10.2355 18.5661C9.36888 15.3178 8.66599 12.6905 8.1883 10.865C7.94945 9.96079 7.76179 9.25449 7.63213 8.76997L7.48882 8.22404C7.45811 8.1012 7.44788 8.03638 7.44788 8.03638C7.44788 8.03638 7.47176 8.09438 7.50929 8.21722C7.54682 8.34005 7.59801 8.52772 7.66625 8.75974C7.80614 9.24425 8.00746 9.94373 8.25995 10.8445C8.77177 12.6563 9.49513 15.2802 10.3754 18.5285C12.1395 25.0115 14.5041 34.0228 17.0802 43.9622C19.6563 53.9016 22.5771 65.5129 24.3104 72.0164" fill="#292C2D"/>
<path d="M5.02881 27.325C5.1651 27.3811 5.29541 27.4509 5.41779 27.5331C5.66004 27.6764 6.00808 27.8948 6.44141 28.1677C7.29102 28.7171 8.44771 29.5053 9.70677 30.3958L12.921 32.6887L13.9002 33.3712C14.0237 33.4479 14.1382 33.5383 14.2414 33.6407C14.1038 33.5851 13.9723 33.5153 13.849 33.4326C13.6068 33.2893 13.2588 33.0709 12.8254 32.7945C11.9826 32.2384 10.8362 31.4297 9.57712 30.5425L6.34587 28.2735L5.36319 27.5911C5.24256 27.5146 5.13046 27.4253 5.02881 27.325Z" fill="#292C2D"/>
<path d="M14.7362 33.3575C14.6918 33.3302 16.2102 30.8769 18.1244 27.8777C20.0386 24.8785 21.632 22.4695 21.6764 22.4968C21.7207 22.5241 20.2023 24.9808 18.2847 27.9801C16.3672 30.9793 14.7805 33.378 14.7362 33.3575Z" fill="#292C2D"/>
<path d="M18.0049 48.8073C18.0993 48.6895 18.2082 48.584 18.329 48.4934L19.2469 47.6882C20.0214 47.0058 21.0894 46.064 22.229 44.979C23.3687 43.8939 24.3718 42.8805 25.0884 42.1401C25.4296 41.7989 25.7094 41.4952 25.938 41.2632C26.0413 41.1488 26.1556 41.0448 26.2792 40.9527C26.2036 41.0832 26.1119 41.2035 26.0062 41.311C25.822 41.5328 25.5456 41.8467 25.1976 42.2288C24.5151 42.9966 23.5188 44.0304 22.3724 45.1155C21.2259 46.2005 20.1477 47.1354 19.3492 47.7905C18.9466 48.1317 18.6191 48.3774 18.387 48.5514C18.2695 48.6506 18.1413 48.7364 18.0049 48.8073Z" fill="#292C2D"/>
<path d="M8.02454 45.2827C8.16227 45.2992 8.29747 45.3324 8.42716 45.3817L9.50879 45.7229C10.4164 46.0129 11.6686 46.4258 13.0471 46.8898C14.4256 47.3538 15.671 47.7906 16.5684 48.1147L17.6296 48.5037C17.7617 48.545 17.8887 48.6011 18.0083 48.6709C17.8705 48.6569 17.7351 48.6248 17.6057 48.5754L16.524 48.2342C15.6164 47.9441 14.3642 47.5313 12.9857 47.0638C11.6072 46.5964 10.3618 46.163 9.46444 45.8423L8.40328 45.4499C8.2701 45.4114 8.14271 45.3552 8.02454 45.2827Z" fill="#292C2D"/>
<path d="M9.17786 59.2893C9.35343 59.3156 9.52601 59.359 9.69308 59.419L11.0784 59.8421C12.2453 60.2072 13.8524 60.7224 15.6267 61.3059C17.401 61.8893 19.0013 62.4216 20.1579 62.8208L21.5228 63.2985C21.6926 63.3529 21.858 63.4202 22.0175 63.4998C21.8408 63.4739 21.6671 63.4305 21.4989 63.3702L20.1136 62.9471C18.9467 62.582 17.3396 62.0668 15.5653 61.4833C13.791 60.8998 12.1907 60.3641 11.0374 59.9683L9.67261 59.4872C9.50207 59.4363 9.33647 59.3701 9.17786 59.2893Z" fill="#292C2D"/>
<path d="M21.7377 63.3122C21.8578 63.1647 21.9914 63.0287 22.1369 62.9061L23.2663 61.845C24.2183 60.9476 25.5285 59.7022 26.9377 58.2862C28.3469 56.8701 29.5923 55.5565 30.4863 54.6011L31.544 53.4683C31.6685 53.3236 31.8043 53.189 31.95 53.0657C31.8506 53.2261 31.7364 53.3769 31.6088 53.5161C31.3768 53.7993 31.0288 54.1985 30.5852 54.6898C29.7151 55.6725 28.4868 57.0032 27.0708 58.4192C25.6547 59.8352 24.3411 61.0704 23.3584 61.9439C22.8671 62.3772 22.4679 62.7287 22.1847 62.9675C22.0455 63.0946 21.896 63.2099 21.7377 63.3122Z" fill="#292C2D"/>
</svg>
