<svg width="61" height="63" viewBox="0 0 61 63" fill="none" xmlns="http://www.w3.org/2000/svg">
<path d="M49.443 47.4681C54.0419 39.791 51.8104 31.1846 48.2002 24.2904C47.6034 23.144 47.15 21.8291 46.047 21.1169C44.944 20.4046 43.1872 20.4512 42.272 21.5494C41.5107 22.4609 41.5757 23.6908 41.4351 24.8021C41.2573 26.2927 40.6471 27.7504 39.6756 29.0053C39.0416 29.8235 38.1413 30.594 37.1391 30.6103C35.7656 30.6295 34.9857 29.2899 34.4209 28.1305C33.4081 25.955 32.3876 23.7851 31.3594 21.6209C30.8787 20.4164 30.1907 19.3162 29.322 18.3626C28.3971 17.4564 27.0208 16.8811 25.6669 17.2185C24.3129 17.5559 23.1046 18.9744 23.3938 20.2513C23.5749 20.7587 23.7923 21.2502 24.0446 21.7224C24.2423 22.2269 24.2493 22.8921 23.8125 23.2914C23.3756 23.6907 22.6984 23.6325 22.1498 23.4907C20.2735 23.0019 18.6532 21.956 17.0971 20.8843C15.5409 19.8125 13.9954 18.6907 12.1848 18.0324C10.3741 17.3741 8.23892 17.2281 6.35497 18.0805C4.47102 18.9329 3.0198 20.9992 3.34602 22.8771C3.67224 24.755 5.51247 25.8826 7.27886 26.6261C9.92456 27.705 12.7612 28.3897 15.7009 28.6591C16.2417 28.6508 16.7522 28.8091 17.1589 29.1112C17.807 29.745 17.3682 30.9428 16.6422 31.6436C15.8299 32.4289 14.7504 32.8819 13.8057 33.5108C12.8609 34.1396 11.9739 35.1062 12.0036 36.1666C12.0508 37.6313 13.74 38.31 15.2064 38.5712C18.1414 39.0817 21.2018 39.0893 24.2545 38.5935C25.3439 38.413 26.4658 38.1716 27.5116 38.3768C28.5574 38.5819 29.5126 39.3919 29.4478 40.4529C29.3831 41.5139 28.3285 42.3974 27.2654 42.7434C26.2024 43.0894 25.0884 43.0663 23.9978 43.2371C21.9523 43.5533 19.7356 44.8501 19.2694 46.8281C19.1535 47.4853 19.1951 48.1427 19.391 48.7485C19.5869 49.3543 19.9316 49.8921 20.3982 50.3194C21.3339 51.166 22.459 51.8014 23.7062 52.1876C27.9451 53.7814 32.6734 54.2079 37.4093 53.4237C42.0962 52.5765 46.0394 50.9491 49.4417 47.4744" fill="#FFD433"/>
<path d="M45.3546 44.0973C42.2527 40.937 38.9443 37.9728 35.4458 35.2191L32.7092 33.038C31.8092 32.3195 30.9167 31.6114 30.007 30.9687C28.2322 29.7565 26.3783 28.6475 24.4538 27.6468C22.6221 26.6765 20.8378 25.8195 19.165 25.0338C17.4922 24.2481 15.9079 23.5506 14.4333 22.9787C12.1116 22.0589 9.69665 21.3287 7.21134 20.7949C6.33134 20.6056 5.6421 20.4823 5.1745 20.4026C4.95153 20.3654 4.77183 20.3387 4.64063 20.3134C4.50942 20.2881 4.45707 20.2895 4.45573 20.2957C4.5127 20.3149 4.5714 20.3301 4.63141 20.3413L5.16125 20.4493C5.6223 20.5444 6.29745 20.6726 7.17846 20.8876C9.645 21.4583 12.043 22.2123 14.3524 23.1435C15.818 23.7274 17.3907 24.4333 19.0596 25.2218C20.7286 26.0104 22.5013 26.8759 24.3253 27.8518C26.243 28.8575 28.0893 29.9722 29.8554 31.1907C30.7741 31.8215 31.6501 32.5152 32.5499 33.2496L35.2892 35.4342C38.7803 38.1823 42.0863 41.1355 45.1919 44.2799" fill="#263238"/>
<path d="M29.9312 31.0029C29.9169 30.808 29.879 30.6178 29.8184 30.4362C29.7353 30.08 29.5813 29.5541 29.4039 28.9397C29.0291 27.6834 28.4497 25.9699 27.8057 24.0873C27.1617 22.2047 26.6066 20.4839 26.2586 19.2238C26.0814 18.5934 25.9413 18.0785 25.8505 17.7279C25.812 17.5393 25.7554 17.3564 25.6814 17.1814C25.6822 17.3777 25.7063 17.5708 25.7532 17.757C25.812 18.1204 25.9277 18.6427 26.0806 19.2803C26.3875 20.5653 26.9144 22.2961 27.5596 24.1884C28.2047 26.0808 28.7861 27.7242 29.2271 29.0059C29.4239 29.5902 29.5924 30.0792 29.7145 30.4806C29.77 30.6622 29.8425 30.837 29.9312 31.0029Z" fill="#263238"/>
<path d="M12.1578 36.8139C12.3949 36.7466 12.6269 36.6563 12.8499 36.5444C13.2987 36.3476 13.9179 36.0839 14.7075 35.7694C16.2904 35.1375 18.4804 34.3142 20.9382 33.5165C23.396 32.7188 25.6452 32.0897 27.2911 31.6651C28.1076 31.4522 28.7717 31.2982 29.2311 31.1887C29.4701 31.1449 29.707 31.0809 29.9389 30.9974C29.6991 31.0048 29.4579 31.0364 29.2193 31.0917C28.7564 31.1722 28.0875 31.3033 27.2535 31.4762C25.6094 31.8467 23.349 32.4523 20.8848 33.2494C18.7789 33.9259 16.6989 34.7045 14.6533 35.5821C13.8661 35.916 13.2426 36.2144 12.8128 36.4291C12.5847 36.5386 12.3654 36.6675 12.1578 36.8139Z" fill="#263238"/>
<path d="M45.0256 43.9318C45.0421 43.8506 45.0497 43.7688 45.0486 43.688L45.0724 43.0001C45.0876 42.3977 45.0903 41.5352 45.0746 40.4698C45.0511 38.3332 44.9159 35.3967 44.7214 32.1607C44.5268 28.9247 44.3596 26.0011 44.299 23.8706L44.2259 21.3427L44.1999 20.6596C44.2036 20.5792 44.1954 20.4998 44.1755 20.4241C44.1755 20.4241 44.1581 20.5055 44.15 20.6645C44.142 20.8235 44.1329 21.0782 44.1288 21.3558C44.111 21.9548 44.1083 22.8172 44.1226 23.8889C44.1501 26.0227 44.2788 28.9585 44.4734 32.1946C44.6679 35.4306 44.8351 38.3541 44.9022 40.4853L44.9727 43.0098C44.9826 43.2823 44.9967 43.5201 44.9987 43.6928C44.9951 43.7746 45.0041 43.8552 45.0256 43.9318Z" fill="#263238"/>
<path d="M20.1294 48.9485C20.2147 48.951 20.3013 48.941 20.3863 48.9187L21.1089 48.7799L23.777 48.2451C26.0333 47.7956 29.1488 47.2076 32.579 46.5473C36.0092 45.887 39.1362 45.2905 41.3789 44.7982C42.5022 44.5506 43.4258 44.3543 44.0376 44.1858L44.7826 43.9884C44.8681 43.9718 44.9524 43.9456 45.0336 43.9101C44.9482 43.9093 44.8618 43.9193 44.7767 43.9399L44.0502 44.0815L41.3795 44.6129C39.1296 45.063 36.0142 45.6511 32.5815 46.3079C29.1488 46.9647 26.0229 47.571 23.7841 48.0605C22.6608 48.308 21.7372 48.5043 21.1253 48.6729L20.4035 48.8533C20.3092 48.8717 20.2167 48.9038 20.1294 48.9485Z" fill="#263238"/>
</svg>
